<svg width="218" height="69" viewBox="0 0 218 69" fill="none" xmlns="http://www.w3.org/2000/svg">
<path d="M78.2171 31.043V27.9299L92.5472 7.63427H78.1351V3.44307H98.8251V6.55614L84.5086 26.8518H98.907V31.043H78.2171ZM111.122 31.4474C109.02 31.4474 107.205 31.0161 105.676 30.1536C104.157 29.2822 102.988 28.0512 102.169 26.4611C101.35 24.8618 100.941 22.9795 100.941 20.8143C100.941 18.6851 101.35 16.8163 102.169 15.2081C102.997 13.5909 104.152 12.3332 105.635 11.4346C107.118 10.5273 108.861 10.0736 110.863 10.0736C112.155 10.0736 113.374 10.2802 114.52 10.6934C115.676 11.0977 116.695 11.7267 117.577 12.5802C118.469 13.4337 119.169 14.5208 119.679 15.8415C120.188 17.1532 120.443 18.7165 120.443 20.5314V22.0273H103.261V18.739H115.707C115.698 17.8045 115.494 16.9736 115.093 16.2458C114.693 15.5091 114.133 14.9296 113.415 14.5074C112.705 14.0851 111.877 13.8739 110.931 13.8739C109.921 13.8739 109.034 14.1165 108.269 14.6017C107.505 15.0778 106.909 15.7068 106.482 16.4883C106.063 17.261 105.849 18.11 105.84 19.0355V21.9059C105.84 23.1099 106.063 24.143 106.509 25.0055C106.955 25.8591 107.578 26.5149 108.379 26.9731C109.179 27.4224 110.116 27.647 111.19 27.647C111.909 27.647 112.559 27.5482 113.142 27.3505C113.724 27.1438 114.229 26.8428 114.656 26.4476C115.084 26.0523 115.407 25.5625 115.625 24.9786L120.239 25.4908C119.947 26.6947 119.392 27.7459 118.573 28.6443C117.764 29.5337 116.726 30.2256 115.462 30.7196C114.197 31.2048 112.75 31.4474 111.122 31.4474ZM127.816 18.9142V31.043H122.876V10.343H127.598V13.8605H127.844C128.326 12.7015 129.095 11.7805 130.15 11.0977C131.215 10.415 132.529 10.0736 134.094 10.0736C135.541 10.0736 136.801 10.3789 137.875 10.9899C138.958 11.6009 139.795 12.4858 140.386 13.6449C140.986 14.8039 141.282 16.2099 141.273 17.863V31.043H136.333V18.6177C136.333 17.2341 135.969 16.1515 135.241 15.3699C134.522 14.5883 133.526 14.1974 132.252 14.1974C131.388 14.1974 130.619 14.3861 129.945 14.7633C129.281 15.1318 128.758 15.6664 128.376 16.3671C128.003 17.0679 127.816 17.9168 127.816 18.9142ZM153.693 31.4474C151.645 31.4474 149.871 31.0027 148.37 30.1133C146.869 29.2237 145.704 27.9794 144.876 26.3802C144.057 24.7809 143.648 22.9122 143.648 20.7739C143.648 18.6356 144.057 16.7625 144.876 15.1542C145.704 13.546 146.869 12.2971 148.37 11.4077C149.871 10.5183 151.645 10.0736 153.693 10.0736C155.74 10.0736 157.514 10.5183 159.015 11.4077C160.516 12.2971 161.677 13.546 162.495 15.1542C163.323 16.7625 163.737 18.6356 163.737 20.7739C163.737 22.9122 163.323 24.7809 162.495 26.3802C161.677 27.9794 160.516 29.2237 159.015 30.1133C157.514 31.0027 155.74 31.4474 153.693 31.4474ZM153.72 27.5392C154.83 27.5392 155.758 27.2382 156.504 26.6362C157.25 26.0254 157.805 25.2077 158.169 24.1836C158.542 23.1593 158.729 22.0182 158.729 20.7605C158.729 19.4936 158.542 18.3481 158.169 17.3239C157.805 16.2907 157.25 15.4687 156.504 14.8577C155.758 14.2467 154.83 13.9414 153.72 13.9414C152.582 13.9414 151.636 14.2467 150.881 14.8577C150.135 15.4687 149.576 16.2907 149.202 17.3239C148.838 18.3481 148.656 19.4936 148.656 20.7605C148.656 22.0182 148.838 23.1593 149.202 24.1836C149.576 25.2077 150.135 26.0254 150.881 26.6362C151.636 27.2382 152.582 27.5392 153.72 27.5392ZM171.124 18.9142V31.043H166.184V10.343H170.906V13.8605H171.151C171.634 12.7015 172.402 11.7805 173.458 11.0977C174.522 10.415 175.837 10.0736 177.402 10.0736C178.849 10.0736 180.108 10.3789 181.183 10.9899C182.266 11.6009 183.102 12.4858 183.693 13.6449C184.294 14.8039 184.591 16.2099 184.58 17.863V31.043H179.64V18.6177C179.64 17.2341 179.277 16.1515 178.548 15.3699C177.83 14.5883 176.833 14.1974 175.56 14.1974C174.695 14.1974 173.926 14.3861 173.253 14.7633C172.589 15.1318 172.066 15.6664 171.684 16.3671C171.311 17.0679 171.124 17.9168 171.124 18.9142ZM187.856 31.043V10.343H192.796V31.043H187.856ZM190.34 7.40519C189.557 7.40519 188.885 7.1492 188.32 6.63705C187.756 6.11592 187.475 5.49147 187.475 4.7637C187.475 4.02705 187.756 3.40264 188.32 2.89052C188.885 2.36943 189.557 2.10889 190.34 2.10889C191.131 2.10889 191.806 2.36943 192.359 2.89052C192.924 3.40264 193.207 4.02705 193.207 4.7637C193.207 5.49147 192.924 6.11592 192.359 6.63705C191.806 7.1492 191.131 7.40519 190.34 7.40519Z" fill="white"/>
<path d="M50.6605 0H19.2161C12.4625 0 6.98767 5.40617 6.98767 12.075V43.125C6.98767 49.7938 12.4625 55.2 19.2161 55.2H50.6605C57.4141 55.2 62.8889 49.7938 62.8889 43.125V12.075C62.8889 5.40617 57.4141 0 50.6605 0Z" fill="url(#paint0_linear_21_83)"/>
<path d="M15.0967 21.6179C14.4143 20.4965 14.7818 19.0411 15.9174 18.3673C16.338 18.1179 16.8259 18.0016 17.3155 18.0344L32.1136 19.0266C36.0983 19.2938 38.7414 15.0251 36.6844 11.6446L35.2322 9.25801C34.6284 8.26594 34.9535 6.97849 35.9582 6.3824C36.9628 5.78631 38.2667 6.10731 38.8703 7.09936L47.1977 20.7846C47.8802 21.9062 47.5126 23.3617 46.3768 24.0357C45.9565 24.2851 45.4689 24.4014 44.9796 24.3688L30.1777 23.3828C26.1961 23.1176 23.5565 27.383 25.6118 30.7606L27.0624 33.1447C27.6661 34.1368 27.341 35.4243 26.3364 36.0203C25.3317 36.6165 24.0278 36.2954 23.4243 35.3034L15.0967 21.6179Z" fill="white"/>
<path d="M22.1208 33.1504C21.4385 32.029 21.806 30.5736 22.9415 29.8998C23.3622 29.6504 23.8501 29.5341 24.3397 29.5669L39.1377 30.5593C43.1225 30.8265 45.7656 26.5576 43.7086 23.1771L42.2564 20.7906C41.6527 19.7986 41.9778 18.511 42.9824 17.915C43.9871 17.3189 45.2908 17.6399 45.8945 18.6319L54.2219 32.3171C54.9044 33.4387 54.5369 34.8942 53.401 35.5682C52.9806 35.8176 52.493 35.9339 52.0037 35.9013L37.2019 34.9153C33.2203 34.6501 30.5806 38.9155 32.636 42.2933L34.0866 44.6774C34.6904 45.6694 34.3653 46.9568 33.3606 47.553C32.356 48.1491 31.0521 47.8281 30.4485 46.836L22.1208 33.1504Z" fill="white"/>
<path d="M99.3141 53.6341C98.7974 53.6341 98.3057 53.5008 97.8391 53.2341C97.3724 52.9508 96.9974 52.5175 96.7141 51.9341C96.4307 51.3508 96.2891 50.6008 96.2891 49.6841C96.2891 48.5508 96.5057 47.4841 96.9391 46.4841C97.3724 45.4841 97.9391 44.6008 98.6391 43.8341C99.3391 43.0675 100.106 42.4675 100.939 42.0341C101.789 41.5841 102.622 41.3591 103.439 41.3591C103.756 41.3591 104.114 41.4091 104.514 41.5091C104.914 41.5925 105.331 41.7425 105.764 41.9591C106.114 41.9091 106.472 41.8591 106.839 41.8091C107.222 41.7591 107.614 41.7008 108.014 41.6341L108.089 41.7341C107.889 42.4341 107.714 43.1008 107.564 43.7341C107.414 44.3508 107.264 44.9841 107.114 45.6341L105.964 50.5841C105.947 50.7008 105.914 50.8508 105.864 51.0341C105.814 51.2175 105.789 51.3925 105.789 51.5591C105.789 51.7091 105.822 51.8341 105.889 51.9341C105.956 52.0341 106.072 52.0841 106.239 52.0841C106.522 52.0841 106.881 51.9341 107.314 51.6341C107.747 51.3341 108.139 50.9675 108.489 50.5341C108.706 50.6841 108.897 50.8508 109.064 51.0341C108.497 51.7841 107.889 52.4091 107.239 52.9091C106.589 53.4091 105.856 53.6591 105.039 53.6591C104.422 53.6591 103.981 53.5091 103.714 53.2091C103.447 52.8925 103.314 52.5008 103.314 52.0341C103.314 51.5841 103.406 51.0675 103.589 50.4841H103.464C102.847 51.5508 102.181 52.3425 101.464 52.8591C100.764 53.3758 100.047 53.6341 99.3141 53.6341ZM105.114 43.5341C104.764 43.2175 104.397 42.9675 104.014 42.7841C103.631 42.5841 103.239 42.4841 102.839 42.4841C102.222 42.4841 101.672 42.7091 101.189 43.1591C100.706 43.6091 100.297 44.1925 99.9641 44.9091C99.6307 45.6091 99.3807 46.3675 99.2141 47.1841C99.0474 47.9841 98.9641 48.7508 98.9641 49.4841C98.9641 50.4841 99.0974 51.1675 99.3641 51.5341C99.6307 51.8841 99.9474 52.0591 100.314 52.0591C100.747 52.0591 101.222 51.8508 101.739 51.4341C102.272 51.0008 102.789 50.3175 103.289 49.3841C103.806 48.4341 104.247 47.1841 104.614 45.6341L105.114 43.5341ZM113.634 59.7341C112.867 59.7341 112.1 59.6258 111.334 59.4091C110.584 59.1925 109.959 58.8508 109.459 58.3841C108.959 57.9341 108.709 57.3591 108.709 56.6591C108.709 55.8758 109.009 55.2175 109.609 54.6841C110.225 54.1508 110.942 53.6758 111.759 53.2591C111.392 53.0925 111.092 52.8841 110.859 52.6341C110.642 52.3675 110.534 52.0425 110.534 51.6591C110.534 51.1925 110.717 50.7591 111.084 50.3591C111.45 49.9591 112.034 49.5258 112.834 49.0591C112.284 48.7591 111.842 48.3508 111.509 47.8341C111.175 47.3175 111.009 46.7175 111.009 46.0341C111.009 45.1841 111.259 44.4091 111.759 43.7091C112.275 42.9925 112.959 42.4258 113.809 42.0091C114.659 41.5758 115.592 41.3591 116.609 41.3591C118.092 41.3591 119.242 41.8008 120.059 42.6841C120.525 42.4175 120.875 42.1175 121.109 41.7841C120.792 41.4508 120.634 41.0591 120.634 40.6091C120.634 40.2758 120.734 39.9925 120.934 39.7591C121.15 39.5091 121.442 39.3841 121.809 39.3841C122.109 39.3841 122.367 39.4841 122.584 39.6841C122.817 39.8675 122.934 40.1508 122.934 40.5341C122.934 41.0508 122.709 41.5258 122.259 41.9591C121.825 42.3925 121.242 42.8341 120.509 43.2841C120.809 43.8175 120.959 44.4175 120.959 45.0841C120.959 45.9508 120.717 46.7341 120.234 47.4341C119.75 48.1341 119.1 48.6925 118.284 49.1091C117.467 49.5091 116.55 49.7091 115.534 49.7091C114.85 49.7091 114.217 49.6091 113.634 49.4091C113.3 49.6258 113.034 49.8508 112.834 50.0841C112.65 50.3008 112.559 50.5091 112.559 50.7091C112.559 51.0258 112.759 51.2675 113.159 51.4341C113.575 51.6008 114.1 51.7341 114.734 51.8341C115.367 51.9341 116.042 52.0508 116.759 52.1841C117.475 52.3008 118.15 52.4758 118.784 52.7091C119.417 52.9258 119.934 53.2341 120.334 53.6341C120.75 54.0341 120.959 54.5675 120.959 55.2341C120.959 55.9508 120.717 56.5925 120.234 57.1591C119.767 57.7258 119.159 58.1925 118.409 58.5591C117.659 58.9425 116.859 59.2341 116.009 59.4341C115.175 59.6341 114.384 59.7341 113.634 59.7341ZM112.709 53.5841C112.142 53.9675 111.709 54.3758 111.409 54.8091C111.109 55.2591 110.959 55.7508 110.959 56.2841C110.959 56.8675 111.125 57.3425 111.459 57.7091C111.792 58.0758 112.217 58.3425 112.734 58.5091C113.25 58.6758 113.784 58.7591 114.334 58.7591C114.984 58.7591 115.65 58.6508 116.334 58.4341C117.017 58.2341 117.592 57.9341 118.059 57.5341C118.525 57.1508 118.759 56.6841 118.759 56.1341C118.759 55.6341 118.559 55.2508 118.159 54.9841C117.775 54.7175 117.267 54.5091 116.634 54.3591C116.017 54.2091 115.359 54.0841 114.659 53.9841C113.975 53.8841 113.325 53.7508 112.709 53.5841ZM115.534 48.8341C116.067 48.8341 116.517 48.7008 116.884 48.4341C117.267 48.1675 117.575 47.8258 117.809 47.4091C118.042 46.9925 118.209 46.5508 118.309 46.0841C118.425 45.6175 118.484 45.1841 118.484 44.7841C118.484 44.4175 118.425 44.0341 118.309 43.6341C118.209 43.2175 118.009 42.8675 117.709 42.5841C117.409 42.3008 116.967 42.1591 116.384 42.1591C115.85 42.1591 115.392 42.2925 115.009 42.5591C114.642 42.8258 114.342 43.1675 114.109 43.5841C113.892 44.0008 113.734 44.4425 113.634 44.9091C113.534 45.3591 113.484 45.7841 113.484 46.1841C113.484 46.5841 113.542 46.9925 113.659 47.4091C113.775 47.8091 113.984 48.1508 114.284 48.4341C114.584 48.7008 115 48.8341 115.534 48.8341ZM133.152 43.4091C133.152 44.0591 132.943 44.6425 132.527 45.1591C132.11 45.6591 131.543 46.0925 130.827 46.4591C130.127 46.8258 129.343 47.1258 128.477 47.3591C127.61 47.5925 126.727 47.7591 125.827 47.8591C125.727 48.3758 125.677 48.8591 125.677 49.3091C125.677 50.1425 125.86 50.8091 126.227 51.3091C126.593 51.7925 127.185 52.0341 128.002 52.0341C128.718 52.0341 129.393 51.8425 130.027 51.4591C130.66 51.0758 131.218 50.5758 131.702 49.9591C131.968 50.1091 132.16 50.2675 132.277 50.4341C131.71 51.4008 131.018 52.1841 130.202 52.7841C129.385 53.3675 128.41 53.6591 127.277 53.6591C125.96 53.6591 124.918 53.2675 124.152 52.4841C123.402 51.6841 123.027 50.6175 123.027 49.2841C123.027 48.3508 123.21 47.4175 123.577 46.4841C123.943 45.5508 124.452 44.7008 125.102 43.9341C125.768 43.1508 126.552 42.5258 127.452 42.0591C128.368 41.5925 129.36 41.3591 130.427 41.3591C131.36 41.3591 132.043 41.5425 132.477 41.9091C132.927 42.2758 133.152 42.7758 133.152 43.4091ZM126.027 46.9841C126.81 46.8841 127.56 46.7008 128.277 46.4341C129.01 46.1508 129.61 45.7841 130.077 45.3341C130.543 44.8675 130.777 44.3008 130.777 43.6341C130.777 43.2675 130.693 42.9758 130.527 42.7591C130.36 42.5258 130.093 42.4091 129.727 42.4091C129.21 42.4091 128.71 42.6341 128.227 43.0841C127.743 43.5175 127.31 44.0841 126.927 44.7841C126.543 45.4841 126.243 46.2175 126.027 46.9841ZM138.159 48.8091L137.109 53.3591H134.609L136.659 44.4841C136.775 44.0008 136.834 43.6841 136.834 43.5341C136.834 43.1341 136.684 42.9341 136.384 42.9341C136.15 42.9341 135.842 43.0675 135.459 43.3341C135.092 43.5841 134.725 43.9008 134.359 44.2841C134.242 44.2008 134.134 44.1175 134.034 44.0341C133.95 43.9508 133.867 43.8591 133.784 43.7591C134.45 42.9758 135.134 42.3925 135.834 42.0091C136.55 41.6091 137.217 41.4091 137.834 41.4091C138.4 41.4091 138.8 41.5508 139.034 41.8341C139.267 42.1175 139.384 42.4508 139.384 42.8341C139.384 43.0341 139.35 43.2758 139.284 43.5591C139.234 43.8258 139.184 44.1091 139.134 44.4091H139.209C139.842 43.3925 140.584 42.6341 141.434 42.1341C142.3 41.6175 143.134 41.3591 143.934 41.3591C144.734 41.3591 145.342 41.5841 145.759 42.0341C146.192 42.4675 146.409 43.0008 146.409 43.6341C146.409 43.9841 146.342 44.4508 146.209 45.0341C146.092 45.6175 145.942 46.2425 145.759 46.9091C145.575 47.5758 145.392 48.2341 145.209 48.8841C145.025 49.5175 144.867 50.0841 144.734 50.5841C144.617 51.0675 144.559 51.4091 144.559 51.6091C144.559 51.7258 144.592 51.8341 144.659 51.9341C144.725 52.0341 144.842 52.0841 145.009 52.0841C145.292 52.0841 145.65 51.9341 146.084 51.6341C146.517 51.3341 146.909 50.9675 147.259 50.5341C147.475 50.6841 147.667 50.8508 147.834 51.0341C147.267 51.7841 146.65 52.4091 145.984 52.9091C145.334 53.4091 144.609 53.6591 143.809 53.6591C143.192 53.6591 142.742 53.5091 142.459 53.2091C142.175 52.8925 142.034 52.5008 142.034 52.0341C142.034 51.7008 142.092 51.2591 142.209 50.7091C142.342 50.1591 142.5 49.5591 142.684 48.9091C142.867 48.2591 143.042 47.6175 143.209 46.9841C143.392 46.3341 143.542 45.7425 143.659 45.2091C143.792 44.6758 143.859 44.2591 143.859 43.9591C143.859 43.6258 143.784 43.3508 143.634 43.1341C143.484 42.9175 143.217 42.8091 142.834 42.8091C142.35 42.8091 141.809 43.0175 141.209 43.4341C140.609 43.8508 140.034 44.4841 139.484 45.3341C138.95 46.1841 138.525 47.2758 138.209 48.6091L138.159 48.8091ZM153.152 53.6591C151.869 53.6591 150.86 53.2591 150.127 52.4591C149.41 51.6591 149.052 50.5841 149.052 49.2341C149.052 48.1508 149.269 47.1341 149.702 46.1841C150.135 45.2341 150.71 44.4008 151.427 43.6841C152.144 42.9675 152.935 42.4091 153.802 42.0091C154.669 41.5925 155.527 41.3841 156.377 41.3841C157.16 41.3841 157.81 41.5508 158.327 41.8841C158.844 42.2175 159.102 42.6425 159.102 43.1591C159.102 43.5091 158.985 43.8008 158.752 44.0341C158.519 44.2675 158.21 44.3841 157.827 44.3841C157.46 44.3841 157.085 44.2425 156.702 43.9591C156.319 43.6591 156.085 43.1425 156.002 42.4091C155.385 42.4258 154.81 42.6591 154.277 43.1091C153.76 43.5591 153.31 44.1341 152.927 44.8341C152.544 45.5341 152.244 46.2758 152.027 47.0591C151.81 47.8425 151.702 48.5841 151.702 49.2841C151.702 50.0008 151.86 50.6258 152.177 51.1591C152.494 51.6925 153.085 51.9591 153.952 51.9591C154.669 51.9591 155.327 51.7675 155.927 51.3841C156.544 51.0008 157.077 50.4925 157.527 49.8591C157.794 49.9925 157.994 50.1508 158.127 50.3341C157.81 50.9008 157.419 51.4425 156.952 51.9591C156.502 52.4591 155.96 52.8675 155.327 53.1841C154.71 53.5008 153.985 53.6591 153.152 53.6591ZM159.626 58.6341C160.46 58.5675 161.276 58.1008 162.076 57.2341C162.893 56.3841 163.776 55.2091 164.726 53.7091C164.176 51.7925 163.693 50.2008 163.276 48.9341C162.876 47.6508 162.526 46.6175 162.226 45.8341C161.926 45.0508 161.66 44.4591 161.426 44.0591C161.21 43.6425 161.01 43.3675 160.826 43.2341C160.643 43.1008 160.468 43.0341 160.301 43.0341C160.101 43.0341 159.876 43.1175 159.626 43.2841C159.393 43.4341 159.085 43.7258 158.701 44.1591C158.585 44.0758 158.485 43.9925 158.401 43.9091C158.301 43.8258 158.21 43.7341 158.126 43.6341C158.81 42.7508 159.443 42.1675 160.026 41.8841C160.626 41.6008 161.168 41.4591 161.651 41.4591C161.935 41.4591 162.201 41.5175 162.451 41.6341C162.718 41.7508 162.976 41.9925 163.226 42.3591C163.493 42.7091 163.776 43.2341 164.076 43.9341C164.376 44.6341 164.71 45.5591 165.076 46.7091C165.443 47.8591 165.868 49.3008 166.351 51.0341C167.118 49.6675 167.751 48.4091 168.251 47.2591C168.751 46.1091 169.068 45.2675 169.201 44.7341C168.835 44.5008 168.526 44.2175 168.276 43.8841C168.043 43.5508 167.926 43.1925 167.926 42.8091C167.926 42.4258 168.051 42.0925 168.301 41.8091C168.551 41.5091 168.885 41.3591 169.301 41.3591C169.818 41.3591 170.201 41.5591 170.451 41.9591C170.718 42.3425 170.851 42.8258 170.851 43.4091C170.851 43.9258 170.66 44.6675 170.276 45.6341C169.91 46.6008 169.41 47.6925 168.776 48.9091C168.16 50.1258 167.485 51.3758 166.751 52.6591C165.768 54.3758 164.86 55.7425 164.026 56.7591C163.193 57.7925 162.393 58.5341 161.626 58.9841C160.86 59.4508 160.068 59.6841 159.251 59.6841C158.385 59.6841 157.718 59.4758 157.251 59.0591C156.785 58.6425 156.551 58.2258 156.551 57.8091C156.551 57.4758 156.668 57.1841 156.901 56.9341C157.118 56.7008 157.41 56.5841 157.776 56.5841C158.06 56.5841 158.385 56.7091 158.751 56.9591C159.135 57.2258 159.426 57.7841 159.626 58.6341Z" fill="white"/>
<defs>
<linearGradient id="paint0_linear_21_83" x1="13.8535" y1="3.14743" x2="58.5666" y2="55.7582" gradientUnits="userSpaceOnUse">
<stop stop-color="#212121"/>
<stop offset="1" stop-color="#141414"/>
</linearGradient>
</defs>
</svg>
